<?xml version="1.0" encoding="UTF-8"?>
<svg width="50px" height="50px" viewBox="0 0 50 50" version="1.1" xmlns="http://www.w3.org/2000/svg" xmlns:xlink="http://www.w3.org/1999/xlink">
    <!-- Generator: Sketch 62 (91390) - https://sketch.com -->
    <title>LockOn</title>
    <desc>Created with Sketch.</desc>
    <g id="LockOn" stroke="none" stroke-width="1" fill="none" fill-rule="evenodd">
        <path d="M31.25,20.7794118 C33.459139,20.7794118 35.25,22.5702728 35.25,24.7794118 L35.25,37.2794118 C35.25,39.4885508 33.459139,41.2794118 31.25,41.2794118 L18.75,41.2794118 C16.540861,41.2794118 14.75,39.4885508 14.75,37.2794118 L14.75,24.7794118 C14.75,22.5702728 16.540861,20.7794118 18.75,20.7794118 L31.25,20.7794118 Z M27.5369117,25.7794118 C27.2760472,24.6078274 25.8469018,24.5973794 24.9948581,24.6078274 C24.160256,24.6180614 22.6979233,24.6180614 22.4791499,25.7794118 C22.3131184,26.6607845 22.1602982,27.7041285 22.0206894,28.9094438 C20.4390131,29.9034885 19.3879255,31.6626656 19.3879255,33.6673373 C19.3879255,36.7668004 21.9005369,39.2794118 25,39.2794118 C28.0994631,39.2794118 30.6120745,36.7668004 30.6120745,33.6673373 C30.6120745,31.6902711 29.5897358,29.9519849 28.04487,28.9522902 C27.9043425,27.7265104 27.7349787,26.6689629 27.5369117,25.7794118 Z" id="Combined-Shape" stroke="#5D5D5D" stroke-width="3" fill="#5D5D5D" fill-rule="nonzero"></path>
        <path d="M18.3676471,16.6176471 C18.3676471,11.7941176 20.5784314,9.38235294 25,9.38235294 C29.4215686,9.38235294 31.6323529,11.7941176 31.6323529,16.6176471" id="Line-4" stroke="#5D5D5D" stroke-width="3" stroke-linecap="round"></path>
    </g>
</svg>